<mxfile host="app.diagrams.net" agent="Mozilla/5.0 (X11; Ubuntu; Linux x86_64; rv:132.0) Gecko/20100101 Firefox/132.0" version="26.0.9">
  <diagram name="Page-1" id="vofHHphFREkyauP8ORJd">
    <mxGraphModel dx="1086" dy="766" grid="1" gridSize="10" guides="1" tooltips="1" connect="1" arrows="1" fold="1" page="1" pageScale="1" pageWidth="850" pageHeight="1100" math="0" shadow="0">
      <root>
        <mxCell id="0" />
        <mxCell id="1" parent="0" />
        <mxCell id="2GyZwGObu46ecdRUZXAx-3" value="" style="edgeStyle=orthogonalEdgeStyle;rounded=0;orthogonalLoop=1;jettySize=auto;html=1;" edge="1" parent="1" source="2GyZwGObu46ecdRUZXAx-1" target="2GyZwGObu46ecdRUZXAx-2">
          <mxGeometry relative="1" as="geometry" />
        </mxCell>
        <mxCell id="2GyZwGObu46ecdRUZXAx-1" value="INIZIO" style="ellipse;whiteSpace=wrap;html=1;" vertex="1" parent="1">
          <mxGeometry x="310" y="20" width="120" height="80" as="geometry" />
        </mxCell>
        <mxCell id="2GyZwGObu46ecdRUZXAx-5" value="" style="edgeStyle=orthogonalEdgeStyle;rounded=0;orthogonalLoop=1;jettySize=auto;html=1;" edge="1" parent="1" source="2GyZwGObu46ecdRUZXAx-2" target="2GyZwGObu46ecdRUZXAx-4">
          <mxGeometry relative="1" as="geometry" />
        </mxCell>
        <mxCell id="2GyZwGObu46ecdRUZXAx-2" value="&lt;div&gt;n = 0&lt;/div&gt;&lt;div&gt;somma = 0&lt;/div&gt;&lt;div&gt;voto = 0&lt;/div&gt;&lt;div&gt;media = 0&lt;br&gt;&lt;/div&gt;" style="whiteSpace=wrap;html=1;" vertex="1" parent="1">
          <mxGeometry x="285" y="130" width="170" height="110" as="geometry" />
        </mxCell>
        <mxCell id="2GyZwGObu46ecdRUZXAx-7" value="" style="edgeStyle=orthogonalEdgeStyle;rounded=0;orthogonalLoop=1;jettySize=auto;html=1;" edge="1" parent="1" source="2GyZwGObu46ecdRUZXAx-4" target="2GyZwGObu46ecdRUZXAx-6">
          <mxGeometry relative="1" as="geometry" />
        </mxCell>
        <mxCell id="2GyZwGObu46ecdRUZXAx-4" value="read voto " style="shape=parallelogram;perimeter=parallelogramPerimeter;whiteSpace=wrap;html=1;fixedSize=1;" vertex="1" parent="1">
          <mxGeometry x="310" y="270" width="120" height="60" as="geometry" />
        </mxCell>
        <mxCell id="2GyZwGObu46ecdRUZXAx-9" value="" style="edgeStyle=orthogonalEdgeStyle;rounded=0;orthogonalLoop=1;jettySize=auto;html=1;" edge="1" parent="1" source="2GyZwGObu46ecdRUZXAx-6" target="2GyZwGObu46ecdRUZXAx-8">
          <mxGeometry relative="1" as="geometry" />
        </mxCell>
        <mxCell id="2GyZwGObu46ecdRUZXAx-6" value="Write &quot;vuoi inserire un voto ? &quot;" style="whiteSpace=wrap;html=1;" vertex="1" parent="1">
          <mxGeometry x="300" y="360" width="140" height="80" as="geometry" />
        </mxCell>
        <mxCell id="2GyZwGObu46ecdRUZXAx-11" value="" style="edgeStyle=orthogonalEdgeStyle;rounded=0;orthogonalLoop=1;jettySize=auto;html=1;" edge="1" parent="1" source="2GyZwGObu46ecdRUZXAx-8" target="2GyZwGObu46ecdRUZXAx-10">
          <mxGeometry relative="1" as="geometry" />
        </mxCell>
        <mxCell id="2GyZwGObu46ecdRUZXAx-8" value="read input" style="shape=parallelogram;perimeter=parallelogramPerimeter;whiteSpace=wrap;html=1;fixedSize=1;" vertex="1" parent="1">
          <mxGeometry x="310" y="470" width="120" height="60" as="geometry" />
        </mxCell>
        <mxCell id="2GyZwGObu46ecdRUZXAx-13" value="" style="edgeStyle=orthogonalEdgeStyle;rounded=0;orthogonalLoop=1;jettySize=auto;html=1;" edge="1" parent="1" source="2GyZwGObu46ecdRUZXAx-10" target="2GyZwGObu46ecdRUZXAx-12">
          <mxGeometry relative="1" as="geometry" />
        </mxCell>
        <mxCell id="2GyZwGObu46ecdRUZXAx-16" value="TRUE" style="edgeLabel;html=1;align=center;verticalAlign=middle;resizable=0;points=[];" vertex="1" connectable="0" parent="2GyZwGObu46ecdRUZXAx-13">
          <mxGeometry x="-0.1333" y="-3" relative="1" as="geometry">
            <mxPoint as="offset" />
          </mxGeometry>
        </mxCell>
        <mxCell id="2GyZwGObu46ecdRUZXAx-15" value="" style="edgeStyle=orthogonalEdgeStyle;rounded=0;orthogonalLoop=1;jettySize=auto;html=1;" edge="1" parent="1" source="2GyZwGObu46ecdRUZXAx-10" target="2GyZwGObu46ecdRUZXAx-14">
          <mxGeometry relative="1" as="geometry" />
        </mxCell>
        <mxCell id="2GyZwGObu46ecdRUZXAx-17" value="FALSE" style="edgeLabel;html=1;align=center;verticalAlign=middle;resizable=0;points=[];" vertex="1" connectable="0" parent="2GyZwGObu46ecdRUZXAx-15">
          <mxGeometry relative="1" as="geometry">
            <mxPoint as="offset" />
          </mxGeometry>
        </mxCell>
        <mxCell id="2GyZwGObu46ecdRUZXAx-10" value="input == &quot;si &quot;" style="rhombus;whiteSpace=wrap;html=1;" vertex="1" parent="1">
          <mxGeometry x="310" y="570" width="120" height="100" as="geometry" />
        </mxCell>
        <mxCell id="2GyZwGObu46ecdRUZXAx-19" value="" style="edgeStyle=orthogonalEdgeStyle;rounded=0;orthogonalLoop=1;jettySize=auto;html=1;" edge="1" parent="1" source="2GyZwGObu46ecdRUZXAx-12" target="2GyZwGObu46ecdRUZXAx-18">
          <mxGeometry relative="1" as="geometry" />
        </mxCell>
        <mxCell id="2GyZwGObu46ecdRUZXAx-12" value="read voto " style="shape=parallelogram;perimeter=parallelogramPerimeter;whiteSpace=wrap;html=1;fixedSize=1;" vertex="1" parent="1">
          <mxGeometry x="510" y="590" width="120" height="60" as="geometry" />
        </mxCell>
        <mxCell id="2GyZwGObu46ecdRUZXAx-26" style="edgeStyle=orthogonalEdgeStyle;rounded=0;orthogonalLoop=1;jettySize=auto;html=1;exitX=0.5;exitY=0;exitDx=0;exitDy=0;entryX=0;entryY=0.5;entryDx=0;entryDy=0;" edge="1" parent="1" source="2GyZwGObu46ecdRUZXAx-14" target="2GyZwGObu46ecdRUZXAx-6">
          <mxGeometry relative="1" as="geometry" />
        </mxCell>
        <mxCell id="2GyZwGObu46ecdRUZXAx-27" value="FALSE" style="edgeLabel;html=1;align=center;verticalAlign=middle;resizable=0;points=[];" vertex="1" connectable="0" parent="2GyZwGObu46ecdRUZXAx-26">
          <mxGeometry x="-0.4892" y="-2" relative="1" as="geometry">
            <mxPoint as="offset" />
          </mxGeometry>
        </mxCell>
        <mxCell id="2GyZwGObu46ecdRUZXAx-29" value="" style="edgeStyle=orthogonalEdgeStyle;rounded=0;orthogonalLoop=1;jettySize=auto;html=1;" edge="1" parent="1" source="2GyZwGObu46ecdRUZXAx-14" target="2GyZwGObu46ecdRUZXAx-28">
          <mxGeometry relative="1" as="geometry" />
        </mxCell>
        <mxCell id="2GyZwGObu46ecdRUZXAx-34" value="TRUE" style="edgeLabel;html=1;align=center;verticalAlign=middle;resizable=0;points=[];" vertex="1" connectable="0" parent="2GyZwGObu46ecdRUZXAx-29">
          <mxGeometry x="-0.2222" relative="1" as="geometry">
            <mxPoint as="offset" />
          </mxGeometry>
        </mxCell>
        <mxCell id="2GyZwGObu46ecdRUZXAx-14" value="input == &quot;no&quot;" style="rhombus;whiteSpace=wrap;html=1;" vertex="1" parent="1">
          <mxGeometry x="100" y="580" width="110" height="80" as="geometry" />
        </mxCell>
        <mxCell id="2GyZwGObu46ecdRUZXAx-21" value="" style="edgeStyle=orthogonalEdgeStyle;rounded=0;orthogonalLoop=1;jettySize=auto;html=1;" edge="1" parent="1" source="2GyZwGObu46ecdRUZXAx-18" target="2GyZwGObu46ecdRUZXAx-20">
          <mxGeometry relative="1" as="geometry" />
        </mxCell>
        <mxCell id="2GyZwGObu46ecdRUZXAx-18" value="voto &amp;gt; 0 ?" style="rhombus;whiteSpace=wrap;html=1;" vertex="1" parent="1">
          <mxGeometry x="530" y="720" width="80" height="80" as="geometry" />
        </mxCell>
        <mxCell id="2GyZwGObu46ecdRUZXAx-23" value="" style="edgeStyle=orthogonalEdgeStyle;rounded=0;orthogonalLoop=1;jettySize=auto;html=1;" edge="1" parent="1" source="2GyZwGObu46ecdRUZXAx-20" target="2GyZwGObu46ecdRUZXAx-22">
          <mxGeometry relative="1" as="geometry" />
        </mxCell>
        <mxCell id="2GyZwGObu46ecdRUZXAx-20" value="n = n +1" style="whiteSpace=wrap;html=1;" vertex="1" parent="1">
          <mxGeometry x="670" y="730" width="120" height="60" as="geometry" />
        </mxCell>
        <mxCell id="2GyZwGObu46ecdRUZXAx-25" value="" style="edgeStyle=orthogonalEdgeStyle;rounded=0;orthogonalLoop=1;jettySize=auto;html=1;" edge="1" parent="1" source="2GyZwGObu46ecdRUZXAx-22" target="2GyZwGObu46ecdRUZXAx-6">
          <mxGeometry relative="1" as="geometry">
            <mxPoint x="590" y="400" as="targetPoint" />
          </mxGeometry>
        </mxCell>
        <mxCell id="2GyZwGObu46ecdRUZXAx-22" value="somma = somma + voto " style="whiteSpace=wrap;html=1;" vertex="1" parent="1">
          <mxGeometry x="670" y="370" width="120" height="60" as="geometry" />
        </mxCell>
        <mxCell id="2GyZwGObu46ecdRUZXAx-31" value="" style="edgeStyle=orthogonalEdgeStyle;rounded=0;orthogonalLoop=1;jettySize=auto;html=1;" edge="1" parent="1" source="2GyZwGObu46ecdRUZXAx-28" target="2GyZwGObu46ecdRUZXAx-30">
          <mxGeometry relative="1" as="geometry" />
        </mxCell>
        <mxCell id="2GyZwGObu46ecdRUZXAx-28" value="media = somma/n" style="whiteSpace=wrap;html=1;" vertex="1" parent="1">
          <mxGeometry x="95" y="750" width="120" height="60" as="geometry" />
        </mxCell>
        <mxCell id="2GyZwGObu46ecdRUZXAx-33" value="" style="edgeStyle=orthogonalEdgeStyle;rounded=0;orthogonalLoop=1;jettySize=auto;html=1;" edge="1" parent="1" source="2GyZwGObu46ecdRUZXAx-30" target="2GyZwGObu46ecdRUZXAx-32">
          <mxGeometry relative="1" as="geometry" />
        </mxCell>
        <mxCell id="2GyZwGObu46ecdRUZXAx-30" value="read media " style="shape=parallelogram;perimeter=parallelogramPerimeter;whiteSpace=wrap;html=1;fixedSize=1;" vertex="1" parent="1">
          <mxGeometry x="95" y="890" width="120" height="60" as="geometry" />
        </mxCell>
        <mxCell id="2GyZwGObu46ecdRUZXAx-32" value="FINE" style="ellipse;whiteSpace=wrap;html=1;" vertex="1" parent="1">
          <mxGeometry x="330" y="880" width="120" height="80" as="geometry" />
        </mxCell>
      </root>
    </mxGraphModel>
  </diagram>
</mxfile>
